<svg version="1.1" id="Layer_1" xmlns="http://www.w3.org/2000/svg" xmlns:xlink="http://www.w3.org/1999/xlink" x="0px" y="0px"
	 width="100%" viewBox="0 0 567 153" enable-background="new 0 0 567 153" xml:space="preserve">


<path fill="#060606" opacity="1.000000" stroke="none" 
	d="
M36.169422,104.540047 
	C35.093895,101.812584 34.018364,99.085114 32.631199,95.736252 
	C31.276051,92.903587 30.232534,90.692322 29.189018,88.481049 
	C29.189018,88.481049 29.251318,88.169510 29.131639,87.787468 
	C28.707062,86.925011 28.402164,86.444603 28.097267,85.964188 
	C26.685852,82.437012 25.274435,78.909843 23.554867,74.774368 
	C22.524200,72.717216 21.801687,71.268364 21.079172,69.819519 
	C19.413330,65.759521 17.747488,61.699516 15.843287,56.993874 
	C14.599678,54.173485 13.594428,51.998737 12.589178,49.823986 
	C11.015429,46.065636 9.441679,42.307285 7.867929,38.548935 
	C7.581918,38.591152 7.295907,38.633373 7.009895,38.675594 
	C7.009895,40.396233 7.011389,42.116871 7.009674,43.837509 
	C6.975273,78.336540 6.952555,112.835609 6.874092,147.334534 
	C6.869662,149.282425 6.406588,151.229248 6.078489,153.588287 
	C5.250000,154.000000 4.500000,154.000000 3.375000,154.000000 
	C2.663466,152.430023 2.035157,150.860443 2.033113,149.290024 
	C1.983239,110.965073 1.981115,72.640007 2.046528,34.315083 
	C2.050970,31.712543 2.653090,29.111029 2.955792,26.681217 
	C3.619718,26.429598 3.924477,26.219666 4.235597,26.209772 
	C17.761286,25.779728 17.713825,25.802380 23.055029,38.181583 
	C33.769291,63.013824 44.540951,87.821297 55.828812,113.885628 
	C57.015293,107.007538 57.870022,101.293259 59.001869,95.634415 
	C62.323658,79.026474 66.975685,62.839554 75.819443,48.223541 
	C78.548988,43.712444 81.941574,39.535442 85.449394,35.576584 
	C92.337997,27.802258 101.988998,27.335461 111.726868,26.249557 
	C111.813255,27.864668 111.959251,29.325014 111.959572,30.785391 
	C111.968231,70.110191 111.980148,109.435043 111.887962,148.759628 
	C111.884476,150.247437 110.848587,151.732834 110.146896,153.609680 
	C106.307091,154.000000 102.614182,154.000000 98.460632,154.000000 
	C98.000000,113.746788 98.000000,73.493576 98.000000,31.337620 
	C93.478584,35.326790 89.433983,38.094353 86.407021,41.713131 
	C76.554298,53.492268 71.350792,67.636162 67.077896,82.131416 
	C62.315010,98.288902 60.732571,114.930748 59.938473,131.677231 
	C59.604424,138.721817 59.163467,145.761337 58.717945,153.757355 
	C57.732677,152.483841 57.313103,151.941513 56.555531,150.786331 
	C55.502804,148.724594 54.788078,147.275711 54.073357,145.826828 
	C54.005600,145.373642 53.937843,144.920471 53.575016,143.945679 
	C52.742474,142.220810 52.205002,141.017548 51.667530,139.814270 
	C49.769512,135.352448 47.871494,130.890625 45.713486,125.826797 
	C45.016941,124.465050 44.580391,123.705315 44.143845,122.945572 
	C43.743324,121.738754 43.342804,120.531937 42.624752,118.718948 
	C40.261292,113.588531 38.215355,109.064293 36.169422,104.540047 
z"/>
<path fill="#030303" opacity="1.000000" stroke="none" 
	d="
M337.458069,154.000000 
	C335.327911,138.979584 334.480896,123.809372 331.787598,108.974342 
	C327.888062,87.495125 320.291626,67.220604 306.707367,49.739208 
	C299.357849,40.281239 290.704590,32.399273 278.148804,30.517878 
	C276.355957,30.249229 274.542969,30.114672 272.066223,29.844681 
	C272.066223,31.916954 272.066254,33.675510 272.066223,35.434067 
	C272.066071,73.071693 272.087769,110.709381 271.991394,148.346771 
	C271.987244,149.970703 270.895020,151.591858 270.154846,153.607147 
	C266.638702,154.000000 263.277435,154.000000 259.458069,154.000000 
	C258.902252,152.673874 258.719757,151.347809 258.719116,150.021637 
	C258.699799,110.197830 258.695953,70.374031 258.705170,30.550226 
	C258.705444,29.252340 258.867249,27.954491 258.950287,26.708414 
	C284.511780,22.567009 301.657898,30.994192 315.945282,54.593483 
	C324.547882,68.802872 330.574738,84.090363 334.933746,100.073364 
	C335.190643,101.015282 335.449951,101.960258 335.784424,102.875938 
	C335.987823,103.432854 336.337799,103.936218 337.006134,105.176735 
	C337.006134,78.455215 337.006134,52.522858 337.006134,26.378540 
	C341.374237,26.378540 345.458221,26.378540 349.876984,26.378540 
	C349.948730,27.809555 350.069153,29.093748 350.069427,30.377968 
	C350.077820,69.868561 350.093231,109.359200 349.998352,148.849564 
	C349.994873,150.305130 348.895264,151.758057 348.153259,153.606110 
	C344.638702,154.000000 341.277435,154.000000 337.458069,154.000000 
z"/>
<path fill="#070707" opacity="1.000000" stroke="none" 
	d="
M568.000000,42.535355 
	C567.067444,45.895298 566.140869,48.792545 565.201355,51.685577 
	C557.036499,76.828255 540.860840,94.114258 514.524109,99.105644 
	C495.190918,102.769707 477.604156,95.903946 462.874390,83.375748 
	C445.756500,68.816307 438.811371,49.712883 440.709320,27.151161 
	C445.414642,27.151161 449.715485,27.151161 454.001892,27.151161 
	C454.953857,33.453876 455.506683,39.746246 456.903046,45.845490 
	C460.500977,61.561089 468.900085,74.431885 480.776337,85.268677 
	C505.030823,107.400383 543.605530,89.633865 550.150696,64.992393 
	C553.358887,52.914440 554.708496,40.807228 552.341003,26.996735 
	C556.717224,26.996735 561.016541,26.925364 565.308289,27.072586 
	C565.962830,27.095037 566.582703,28.129333 567.609253,28.847813 
	C568.000000,33.356899 568.000000,37.713799 568.000000,42.535355 
z"/>
<path fill="#0A0A0A" opacity="1.000000" stroke="none" 
	d="
M239.460632,154.000000 
	C239.000000,111.603416 239.000000,69.206833 239.000000,26.476593 
	C243.622055,26.476593 247.851807,26.476593 252.501602,26.476593 
	C252.581192,27.915445 252.729462,29.352880 252.730194,30.790388 
	C252.750000,70.052376 252.771790,109.314407 252.699112,148.576248 
	C252.696243,150.130737 251.769699,151.683517 251.136780,153.618546 
	C247.307098,154.000000 243.614182,154.000000 239.460632,154.000000 
z"/>
<path fill="#D6D6D6" opacity="1.000000" stroke="none" 
	d="
M434.005127,153.020645 
	C434.005127,153.020645 434.010376,153.510361 434.005188,153.755188 
	C410.645782,154.000000 387.291534,154.000000 363.468658,154.000000 
	C362.997620,153.831360 362.995209,153.662720 363.467224,153.253998 
	C387.296173,153.016159 410.650635,153.018402 434.005127,153.020645 
z"/>
<path fill="#D6D6D6" opacity="1.000000" stroke="none" 
	d="
M222.008728,153.020874 
	C222.008728,153.020874 222.018250,153.510559 222.009125,153.755280 
	C198.645767,154.000000 175.291550,154.000000 151.468658,154.000000 
	C151.000000,154.000000 150.971146,153.521820 151.446091,153.264984 
	C175.283600,153.012390 198.646164,153.016632 222.008728,153.020874 
z"/>
<path fill="#080808" opacity="1.000000" stroke="none" 
	d="
M434.172272,152.666412 
	C410.650635,153.018402 387.296173,153.016159 363.473511,153.001068 
	C362.932007,137.834534 362.815857,122.680931 362.794891,107.527184 
	C362.759827,82.202606 362.785553,56.877945 362.785706,31.553318 
	C362.785706,29.924192 362.785706,28.295065 362.785706,26.093561 
	C386.952484,26.093561 410.697784,26.093561 434.865417,26.093561 
	C434.865417,30.751369 434.865417,35.124893 434.865417,39.546703 
	C434.711212,39.546703 434.276306,39.678459 434.127594,39.527760 
	C427.540161,32.852962 419.783142,30.217583 410.261688,30.814205 
	C401.326019,31.374125 392.295868,30.408842 383.306458,30.143602 
	C381.184418,30.080988 379.058960,30.134331 376.940338,30.134331 
	C376.940338,41.106030 376.807800,51.733692 377.051697,62.352711 
	C377.100739,64.487953 378.188751,66.867966 379.463409,68.662231 
	C386.977417,79.239456 395.887878,87.535973 410.260559,86.115936 
	C411.220062,86.021133 412.210938,86.243973 413.522095,86.344849 
	C413.522095,90.751099 413.522095,95.013626 413.522095,99.910332 
	C402.239075,89.834198 385.121460,88.342445 376.893005,73.700821 
	C376.893005,98.260765 376.893005,122.820709 376.893005,147.868393 
	C380.698029,147.868393 384.637756,147.938522 388.574188,147.854568 
	C398.400482,147.645050 408.241241,146.921555 418.044769,147.275665 
	C424.212708,147.498459 428.159180,145.018906 431.296143,140.315613 
	C433.082611,137.637192 434.726074,134.863358 437.425262,132.433151 
	C436.396637,139.059494 435.368011,145.685822 434.172272,152.666412 
z"/>
<path fill="#030303" opacity="1.000000" stroke="none" 
	d="
M222.179886,152.663696 
	C198.646164,153.016632 175.283600,153.012390 151.451508,153.025513 
	C150.856567,152.063370 150.621811,151.083862 150.621490,150.104309 
	C150.608368,110.112740 150.614700,70.121170 150.629929,30.129602 
	C150.630371,28.987354 150.753555,27.845152 150.834747,26.439060 
	C155.421005,26.439060 159.852280,26.439060 164.796234,26.439060 
	C164.796234,66.771278 164.796234,107.148582 164.796234,147.398636 
	C176.075623,147.398636 186.913971,146.636353 197.597839,147.595200 
	C210.411255,148.745193 219.839233,145.480774 223.894241,131.764282 
	C224.407028,132.088165 224.919800,132.412033 225.432587,132.735916 
	C224.405411,139.259445 223.378235,145.782990 222.179886,152.663696 
z"/>
<path fill="#010101" opacity="1.000000" stroke="none" 
	d="
M124.473114,59.999744 
	C124.473137,48.541466 124.473137,37.583195 124.473137,26.397446 
	C129.087601,26.397446 133.187302,26.397446 137.641113,26.397446 
	C137.641113,68.442520 137.641113,110.483574 137.641113,152.812759 
	C133.488739,152.812759 129.254974,152.812759 124.473091,152.812759 
	C124.473091,122.004044 124.473091,91.251900 124.473114,59.999744 
z"/>
<path fill="#0A0A0A" opacity="1.000000" stroke="none" 
	d="
M373.999939,8.131590 
	C360.052948,8.131605 346.605927,8.131605 332.919006,8.131605 
	C332.919006,6.040947 332.919006,4.311331 332.919006,2.343224 
	C374.128296,2.343224 415.145264,2.343224 456.492737,2.343224 
	C456.594757,4.122609 456.686768,5.727915 456.824585,8.131575 
	C429.251923,8.131575 401.875916,8.131575 373.999939,8.131590 
z"/>
<path fill="#040404" opacity="1.000000" stroke="none" 
	d="
M450.033569,153.002563 
	C447.257416,153.002548 444.966248,153.002548 442.402649,153.002548 
	C442.402649,147.318207 442.402649,141.947571 442.402649,136.283508 
	C447.790527,136.283508 453.154510,136.283508 458.763885,136.283508 
	C458.763885,141.686111 458.763885,147.068222 458.763885,153.002594 
	C456.027710,153.002594 453.273132,153.002594 450.033569,153.002563 
z"/>

</svg>