<!DOCTYPE svg PUBLIC "-//W3C//DTD SVG 1.1//EN" "http://www.w3.org/Graphics/SVG/1.1/DTD/svg11.dtd">

<!-- Uploaded to: SVG Repo, www.svgrepo.com, Transformed by: SVG Repo Mixer Tools -->
<svg version="1.1" id="Uploaded to svgrepo.com" xmlns="http://www.w3.org/2000/svg" xmlns:xlink="http://www.w3.org/1999/xlink" width="64px" height="64px" viewBox="0 0 32 32" xml:space="preserve" fill="#000000" stroke="#000000" stroke-width="1.1199999999999999">

<g id="SVGRepo_bgCarrier" stroke-width="0"/>

<g id="SVGRepo_tracerCarrier" stroke-linecap="round" stroke-linejoin="round" stroke="#CCCCCC" stroke-width="0.8320000000000001"/>

<g id="SVGRepo_iconCarrier"> <style type="text/css"> .feather_een{fill:#0B1719;} </style> <path class="feather_een" d="M7,8.05V5.5C7,5.224,6.776,5,6.5,5S6,5.224,6,5.5v2.55C4.306,8.295,3,9.738,3,11.5s1.306,3.205,3,3.45 V26.5C6,26.776,6.224,27,6.5,27S7,26.776,7,26.5V14.95c1.694-0.245,3-1.688,3-3.45S8.694,8.295,7,8.05z M6.5,14 C5.122,14,4,12.878,4,11.5C4,10.121,5.122,9,6.5,9S9,10.121,9,11.5C9,12.878,7.878,14,6.5,14z M16,17.05V5.5 C16,5.224,15.776,5,15.5,5S15,5.224,15,5.5v11.55c-1.694,0.245-3,1.688-3,3.45s1.306,3.205,3,3.45v2.55c0,0.276,0.224,0.5,0.5,0.5 s0.5-0.224,0.5-0.5v-2.55c1.694-0.245,3-1.688,3-3.45S17.694,17.295,16,17.05z M15.5,23c-1.378,0-2.5-1.122-2.5-2.5 c0-1.379,1.122-2.5,2.5-2.5s2.5,1.121,2.5,2.5C18,21.878,16.878,23,15.5,23z M28,14.5c0-1.762-1.306-3.205-3-3.45V5.5 C25,5.224,24.776,5,24.5,5S24,5.224,24,5.5v5.55c-1.694,0.245-3,1.688-3,3.45s1.306,3.205,3,3.45v8.55c0,0.276,0.224,0.5,0.5,0.5 s0.5-0.224,0.5-0.5v-8.55C26.694,17.705,28,16.262,28,14.5z M24.5,17c-1.378,0-2.5-1.122-2.5-2.5c0-1.379,1.122-2.5,2.5-2.5 s2.5,1.121,2.5,2.5C27,15.878,25.878,17,24.5,17z"/> </g>

</svg>