<?xml version="1.0" encoding="utf-8"?><svg xmlns="http://www.w3.org/2000/svg"><symbol viewBox="0 0 24 24" id="person"><path d="M4,20 C4,17 8,17 10,15 C11,14 8,14 8,9 C8,5.667 9.333,4 12,4 C14.667,4 16,5.667 16,9 C16,14 13,14 14,15 C16,17 20,17 20,20"/></symbol><symbol viewBox="0 0 24 24" id="search"><path d="M14.4121122,14.4121122 L20,20"/><circle cx="10" cy="10" r="6"/></symbol><symbol viewBox="0 0 24 24" id="apps"><circle cx="6" cy="6" r="1"/><circle cx="12" cy="6" r="1"/><circle cx="18" cy="6" r="1"/><circle cx="6" cy="12" r="1"/><circle cx="12" cy="12" r="1"/><circle cx="18" cy="12" r="1"/><circle cx="6" cy="18" r="1"/><circle cx="12" cy="18" r="1"/><circle cx="18" cy="18" r="1"/></symbol><symbol viewBox="0 0 24 24" id="controls-vertical-alt"><circle cx="18" cy="9" r="2" transform="rotate(90 18 9)"/><path d="M18 4L18 7"/><path d="M18 11L18 20"/><circle cx="6" cy="9" r="2" transform="rotate(90 6 9)"/><path d="M6 4L6 7"/><path d="M6 11L6 20"/><circle cx="12" cy="15" r="2" transform="rotate(90 12 15)"/><path d="M12 4L12 13"/><path d="M12 17L12 20"/></symbol><symbol viewBox="0 0 24 24" id="feed"><circle cx="7.5" cy="7.5" r="2.5"/><path d="M22 13H2"/><path d="M18 6h-5m5 3h-5"/><path d="M5 2h14a3 3 0 0 1 3 3v17H2V5a3 3 0 0 1 3-3z"/></symbol><symbol viewBox="0 0 24 24" id="bag"><rect width="14" height="12" x="5" y="7"/><path d="M8 7a4 4 0 1 1 8 0"/></symbol></svg>